<svg id="g_algorithm-flow" width="100%" xmlns="http://www.w3.org/2000/svg" style="max-width: 1025.1875px;" viewBox="-7.5 -8 1025.1875 1071.703125" role="graphics-document document" aria-roledescription="flowchart-v2"><style>#g_algorithm-flow{font-family:"trebuchet ms",verdana,arial,sans-serif;font-size:16px;fill:#333;}#g_algorithm-flow .error-icon{fill:#552222;}#g_algorithm-flow .error-text{fill:#552222;stroke:#552222;}#g_algorithm-flow .edge-thickness-normal{stroke-width:2px;}#g_algorithm-flow .edge-thickness-thick{stroke-width:3.5px;}#g_algorithm-flow .edge-pattern-solid{stroke-dasharray:0;}#g_algorithm-flow .edge-pattern-dashed{stroke-dasharray:3;}#g_algorithm-flow .edge-pattern-dotted{stroke-dasharray:2;}#g_algorithm-flow .marker{fill:#333333;stroke:#333333;}#g_algorithm-flow .marker.cross{stroke:#333333;}#g_algorithm-flow svg{font-family:"trebuchet ms",verdana,arial,sans-serif;font-size:16px;}#g_algorithm-flow .label{font-family:"trebuchet ms",verdana,arial,sans-serif;color:#333;}#g_algorithm-flow .cluster-label text{fill:#333;}#g_algorithm-flow .cluster-label span,#g_algorithm-flow p{color:#333;}#g_algorithm-flow .label text,#g_algorithm-flow span,#g_algorithm-flow p{fill:#333;color:#333;}#g_algorithm-flow .node rect,#g_algorithm-flow .node circle,#g_algorithm-flow .node ellipse,#g_algorithm-flow .node polygon,#g_algorithm-flow .node path{fill:#ECECFF;stroke:#9370DB;stroke-width:1px;}#g_algorithm-flow .flowchart-label text{text-anchor:middle;}#g_algorithm-flow .node .katex path{fill:#000;stroke:#000;stroke-width:1px;}#g_algorithm-flow .node .label{text-align:center;}#g_algorithm-flow .node.clickable{cursor:pointer;}#g_algorithm-flow .arrowheadPath{fill:#333333;}#g_algorithm-flow .edgePath .path{stroke:#333333;stroke-width:2.0px;}#g_algorithm-flow .flowchart-link{stroke:#333333;fill:none;}#g_algorithm-flow .edgeLabel{background-color:#e8e8e8;text-align:center;}#g_algorithm-flow .edgeLabel rect{opacity:0.5;background-color:#e8e8e8;fill:#e8e8e8;}#g_algorithm-flow .labelBkg{background-color:rgba(232, 232, 232, 0.5);}#g_algorithm-flow .cluster rect{fill:#ffffde;stroke:#aaaa33;stroke-width:1px;}#g_algorithm-flow .cluster text{fill:#333;}#g_algorithm-flow .cluster span,#g_algorithm-flow p{color:#333;}#g_algorithm-flow div.mermaidTooltip{position:absolute;text-align:center;max-width:200px;padding:2px;font-family:"trebuchet ms",verdana,arial,sans-serif;font-size:12px;background:hsl(80, 100%, 96.2745098039%);border:1px solid #aaaa33;border-radius:2px;pointer-events:none;z-index:100;}#g_algorithm-flow .flowchartTitleText{text-anchor:middle;font-size:18px;fill:#333;}#g_algorithm-flow :root{--mermaid-font-family:"trebuchet ms",verdana,arial,sans-serif;}</style><g><marker id="g_algorithm-flow_flowchart-pointEnd" class="marker flowchart" viewBox="0 0 10 10" refX="6" refY="5" markerUnits="userSpaceOnUse" markerWidth="12" markerHeight="12" orient="auto"><path d="M 0 0 L 10 5 L 0 10 z" class="arrowMarkerPath" style="stroke-width: 1; stroke-dasharray: 1, 0;"></path></marker><marker id="g_algorithm-flow_flowchart-pointStart" class="marker flowchart" viewBox="0 0 10 10" refX="4.5" refY="5" markerUnits="userSpaceOnUse" markerWidth="12" markerHeight="12" orient="auto"><path d="M 0 5 L 10 10 L 10 0 z" class="arrowMarkerPath" style="stroke-width: 1; stroke-dasharray: 1, 0;"></path></marker><marker id="g_algorithm-flow_flowchart-circleEnd" class="marker flowchart" viewBox="0 0 10 10" refX="11" refY="5" markerUnits="userSpaceOnUse" markerWidth="11" markerHeight="11" orient="auto"><circle cx="5" cy="5" r="5" class="arrowMarkerPath" style="stroke-width: 1; stroke-dasharray: 1, 0;"></circle></marker><marker id="g_algorithm-flow_flowchart-circleStart" class="marker flowchart" viewBox="0 0 10 10" refX="-1" refY="5" markerUnits="userSpaceOnUse" markerWidth="11" markerHeight="11" orient="auto"><circle cx="5" cy="5" r="5" class="arrowMarkerPath" style="stroke-width: 1; stroke-dasharray: 1, 0;"></circle></marker><marker id="g_algorithm-flow_flowchart-crossEnd" class="marker cross flowchart" viewBox="0 0 11 11" refX="12" refY="5.2" markerUnits="userSpaceOnUse" markerWidth="11" markerHeight="11" orient="auto"><path d="M 1,1 l 9,9 M 10,1 l -9,9" class="arrowMarkerPath" style="stroke-width: 2; stroke-dasharray: 1, 0;"></path></marker><marker id="g_algorithm-flow_flowchart-crossStart" class="marker cross flowchart" viewBox="0 0 11 11" refX="-1" refY="5.2" markerUnits="userSpaceOnUse" markerWidth="11" markerHeight="11" orient="auto"><path d="M 1,1 l 9,9 M 10,1 l -9,9" class="arrowMarkerPath" style="stroke-width: 2; stroke-dasharray: 1, 0;"></path></marker><g class="root"><g class="clusters"><g class="cluster default flowchart-label" id="INPUT"><rect style="" rx="0" ry="0" x="607.109375" y="0" width="402.578125" height="402"></rect><g class="cluster-label" transform="translate(759.9296875, 0)"><foreignObject width="96.9375" height="18"><div xmlns="http://www.w3.org/1999/xhtml" style="display: inline-block; white-space: nowrap;"><span class="nodeLabel">Data Sources</span></div></foreignObject></g></g></g><g class="edgePaths"><path d="M753.762,908.212L737.143,921.627C720.524,935.042,687.285,961.873,673.785,980.208C660.285,998.544,666.523,1008.386,669.643,1013.306L672.762,1018.227" id="L-F-G-0" class="edge-thickness-normal edge-pattern-solid flowchart-link LS-F LE-G" style="fill:none;" marker-end="url(#g_algorithm-flow_flowchart-pointEnd)"></path><path d="M786.281,940.73L784.548,948.726C782.815,956.721,779.349,972.712,780.421,985.608C781.492,998.503,787.102,1008.303,789.907,1013.203L792.712,1018.103" id="L-F-H-0" class="edge-thickness-normal edge-pattern-solid flowchart-link LS-F LE-H" style="fill:none;" marker-end="url(#g_algorithm-flow_flowchart-pointEnd)"></path><path d="M837.333,918.624L846.072,930.304C854.81,941.984,872.288,965.344,883.925,981.929C895.563,998.515,901.36,1008.328,904.259,1013.234L907.157,1018.14" id="L-F-I-0" class="edge-thickness-normal edge-pattern-solid flowchart-link LS-F LE-I" style="fill:none;" marker-end="url(#g_algorithm-flow_flowchart-pointEnd)"></path><path d="M705.633,217.5L705.633,248.25C705.633,279,705.633,340.5,705.633,375.417C705.633,410.333,705.633,418.667,714.324,426.645C723.015,434.624,740.397,442.247,749.089,446.059L757.78,449.871" id="L-A1-B-0" class="edge-thickness-normal edge-pattern-solid flowchart-link LS-A1 LE-B" style="fill:none;" marker-end="url(#g_algorithm-flow_flowchart-pointEnd)"></path><path d="M896.922,217.5L896.922,248.25C896.922,279,896.922,340.5,896.922,375.417C896.922,410.333,896.922,418.667,888.028,426.652C879.134,434.636,861.346,442.273,852.452,446.091L843.558,449.909" id="L-A2-B-0" class="edge-thickness-normal edge-pattern-solid flowchart-link LS-A2 LE-B" style="fill:none;" marker-end="url(#g_algorithm-flow_flowchart-pointEnd)"></path><path d="M800.254,485L800.254,489.167C800.254,493.333,800.254,501.667,800.254,509.117C800.254,516.567,800.254,523.133,800.254,526.417L800.254,529.7" id="L-B-C-0" class="edge-thickness-normal edge-pattern-solid flowchart-link LS-B LE-C" style="fill:none;" marker-end="url(#g_algorithm-flow_flowchart-pointEnd)"></path><path d="M800.254,568L800.254,572.167C800.254,576.333,800.254,584.667,800.254,592.117C800.254,599.567,800.254,606.133,800.254,609.417L800.254,612.7" id="L-C-D-0" class="edge-thickness-normal edge-pattern-solid flowchart-link LS-C LE-D" style="fill:none;" marker-end="url(#g_algorithm-flow_flowchart-pointEnd)"></path><path d="M800.254,651L800.254,655.167C800.254,659.333,800.254,667.667,800.254,675.117C800.254,682.567,800.254,689.133,800.254,692.417L800.254,695.7" id="L-D-E-0" class="edge-thickness-normal edge-pattern-solid flowchart-link LS-D LE-E" style="fill:none;" marker-end="url(#g_algorithm-flow_flowchart-pointEnd)"></path><path d="M800.254,734L800.254,738.167C800.254,742.333,800.254,750.667,800.32,758.2C800.386,765.734,800.518,772.467,800.584,775.834L800.65,779.201" id="L-E-F-0" class="edge-thickness-normal edge-pattern-solid flowchart-link LS-E LE-F" style="fill:none;" marker-end="url(#g_algorithm-flow_flowchart-pointEnd)"></path><path d="M765.949,920.398L757.969,931.782C749.989,943.166,734.03,965.935,722.931,982.24C711.832,998.544,705.594,1008.386,702.475,1013.306L699.355,1018.227" id="L-F-G-1" class="edge-thickness-normal edge-pattern-solid flowchart-link LS-F LE-G" style="fill:none;" marker-end="url(#g_algorithm-flow_flowchart-pointEnd)"></path><path d="M819.838,936.119L822.302,944.883C824.767,953.647,829.696,971.175,829.262,984.845C828.828,998.515,823.031,1008.328,820.132,1013.234L817.233,1018.14" id="L-F-H-1" class="edge-thickness-normal edge-pattern-solid flowchart-link LS-F LE-H" style="fill:none;" marker-end="url(#g_algorithm-flow_flowchart-pointEnd)"></path><path d="M847.848,908.109L864.402,921.542C880.956,934.974,914.064,961.838,927.947,980.162C941.831,998.486,936.49,1008.269,933.82,1013.16L931.149,1018.051" id="L-F-I-1" class="edge-thickness-normal edge-pattern-solid flowchart-link LS-F LE-I" style="fill:none;" marker-end="url(#g_algorithm-flow_flowchart-pointEnd)"></path></g><g class="edgeLabels"><g class="edgeLabel" transform="translate(654.046875, 988.703125)"><g class="label" transform="translate(-44.0234375, -9)"><foreignObject width="88.046875" height="18"><div xmlns="http://www.w3.org/1999/xhtml" style="display: inline-block; white-space: nowrap;"><span class="edgeLabel">at most 0.15</span></div></foreignObject></g></g><g class="edgeLabel" transform="translate(775.8828125, 988.703125)"><g class="label" transform="translate(-37.8125, -9)"><foreignObject width="75.625" height="18"><div xmlns="http://www.w3.org/1999/xhtml" style="display: inline-block; white-space: nowrap;"><span class="edgeLabel">0.15 to 0.4</span></div></foreignObject></g></g><g class="edgeLabel" transform="translate(889.765625, 988.703125)"><g class="label" transform="translate(-35.140625, -9)"><foreignObject width="70.28125" height="18"><div xmlns="http://www.w3.org/1999/xhtml" style="display: inline-block; white-space: nowrap;"><span class="edgeLabel">above 0.4</span></div></foreignObject></g></g><g class="edgeLabel"><g class="label" transform="translate(0, 0)"><foreignObject width="0" height="0"><div xmlns="http://www.w3.org/1999/xhtml" style="display: inline-block; white-space: nowrap;"><span class="edgeLabel"></span></div></foreignObject></g></g><g class="edgeLabel"><g class="label" transform="translate(0, 0)"><foreignObject width="0" height="0"><div xmlns="http://www.w3.org/1999/xhtml" style="display: inline-block; white-space: nowrap;"><span class="edgeLabel"></span></div></foreignObject></g></g><g class="edgeLabel"><g class="label" transform="translate(0, 0)"><foreignObject width="0" height="0"><div xmlns="http://www.w3.org/1999/xhtml" style="display: inline-block; white-space: nowrap;"><span class="edgeLabel"></span></div></foreignObject></g></g><g class="edgeLabel"><g class="label" transform="translate(0, 0)"><foreignObject width="0" height="0"><div xmlns="http://www.w3.org/1999/xhtml" style="display: inline-block; white-space: nowrap;"><span class="edgeLabel"></span></div></foreignObject></g></g><g class="edgeLabel"><g class="label" transform="translate(0, 0)"><foreignObject width="0" height="0"><div xmlns="http://www.w3.org/1999/xhtml" style="display: inline-block; white-space: nowrap;"><span class="edgeLabel"></span></div></foreignObject></g></g><g class="edgeLabel"><g class="label" transform="translate(0, 0)"><foreignObject width="0" height="0"><div xmlns="http://www.w3.org/1999/xhtml" style="display: inline-block; white-space: nowrap;"><span class="edgeLabel"></span></div></foreignObject></g></g><g class="edgeLabel"><g class="label" transform="translate(0, 0)"><foreignObject width="0" height="0"><div xmlns="http://www.w3.org/1999/xhtml" style="display: inline-block; white-space: nowrap;"><span class="edgeLabel"></span></div></foreignObject></g></g><g class="edgeLabel"><g class="label" transform="translate(0, 0)"><foreignObject width="0" height="0"><div xmlns="http://www.w3.org/1999/xhtml" style="display: inline-block; white-space: nowrap;"><span class="edgeLabel"></span></div></foreignObject></g></g><g class="edgeLabel"><g class="label" transform="translate(0, 0)"><foreignObject width="0" height="0"><div xmlns="http://www.w3.org/1999/xhtml" style="display: inline-block; white-space: nowrap;"><span class="edgeLabel"></span></div></foreignObject></g></g></g><g class="nodes"><g class="root" transform="translate(-7.5, 17)"><g class="clusters"><g class="cluster default flowchart-label" id="LOTTERY"><rect style="" rx="0" ry="0" x="8" y="8" width="572.109375" height="352"></rect><g class="cluster-label" transform="translate(233.71875, 8)"><foreignObject width="120.671875" height="18"><div xmlns="http://www.w3.org/1999/xhtml" style="display: inline-block; white-space: nowrap;"><span class="nodeLabel">Weighted Lottery</span></div></foreignObject></g></g></g><g class="edgePaths"><path d="M178.313,59.5L184.479,59.5C190.646,59.5,202.979,59.5,219.498,76.743C236.018,93.985,256.723,128.471,267.075,145.713L277.428,162.956" id="L-J-N-0" class="edge-thickness-normal edge-pattern-solid flowchart-link LS-J LE-N" style="fill:none;" marker-end="url(#g_algorithm-flow_flowchart-pointEnd)"></path><path d="M184.516,142.5L189.648,142.5C194.781,142.5,205.047,142.5,216.912,146.238C228.778,149.976,242.243,157.452,248.976,161.19L255.709,164.927" id="L-K-N-0" class="edge-thickness-normal edge-pattern-solid flowchart-link LS-K LE-N" style="fill:none;" marker-end="url(#g_algorithm-flow_flowchart-pointEnd)"></path><path d="M176.961,225.5L183.353,225.5C189.745,225.5,202.529,225.5,215.653,221.762C228.778,218.024,242.243,210.548,248.976,206.81L255.709,203.073" id="L-L-N-0" class="edge-thickness-normal edge-pattern-solid flowchart-link LS-L LE-N" style="fill:none;" marker-end="url(#g_algorithm-flow_flowchart-pointEnd)"></path><path d="M190.313,308.5L194.479,308.5C198.646,308.5,206.979,308.5,221.498,291.257C236.018,274.015,256.723,239.529,267.075,222.287L277.428,205.044" id="L-M-N-0" class="edge-thickness-normal edge-pattern-solid flowchart-link LS-M LE-N" style="fill:none;" marker-end="url(#g_algorithm-flow_flowchart-pointEnd)"></path><path d="M339.813,184L343.979,184C348.146,184,356.479,184,363.929,184C371.379,184,377.946,184,381.229,184L384.513,184" id="L-N-O-0" class="edge-thickness-normal edge-pattern-solid flowchart-link LS-N LE-O" style="fill:none;" marker-end="url(#g_algorithm-flow_flowchart-pointEnd)"></path></g><g class="edgeLabels"><g class="edgeLabel"><g class="label" transform="translate(0, 0)"><foreignObject width="0" height="0"><div xmlns="http://www.w3.org/1999/xhtml" style="display: inline-block; white-space: nowrap;"><span class="edgeLabel"></span></div></foreignObject></g></g><g class="edgeLabel"><g class="label" transform="translate(0, 0)"><foreignObject width="0" height="0"><div xmlns="http://www.w3.org/1999/xhtml" style="display: inline-block; white-space: nowrap;"><span class="edgeLabel"></span></div></foreignObject></g></g><g class="edgeLabel"><g class="label" transform="translate(0, 0)"><foreignObject width="0" height="0"><div xmlns="http://www.w3.org/1999/xhtml" style="display: inline-block; white-space: nowrap;"><span class="edgeLabel"></span></div></foreignObject></g></g><g class="edgeLabel"><g class="label" transform="translate(0, 0)"><foreignObject width="0" height="0"><div xmlns="http://www.w3.org/1999/xhtml" style="display: inline-block; white-space: nowrap;"><span class="edgeLabel"></span></div></foreignObject></g></g><g class="edgeLabel"><g class="label" transform="translate(0, 0)"><foreignObject width="0" height="0"><div xmlns="http://www.w3.org/1999/xhtml" style="display: inline-block; white-space: nowrap;"><span class="edgeLabel"></span></div></foreignObject></g></g></g><g class="nodes"><g class="node default default flowchart-label" id="flowchart-J-112" data-node="true" data-id="J" transform="translate(111.65625, 59.5)"><rect class="basic label-container" style="" rx="0" ry="0" x="-66.65625" y="-16.5" width="133.3125" height="33"></rect><g class="label" style="" transform="translate(-59.15625, -9)"><rect></rect><foreignObject width="118.3125" height="18"><div xmlns="http://www.w3.org/1999/xhtml" style="display: inline-block; white-space: nowrap;"><span class="nodeLabel">Base weight 100</span></div></foreignObject></g></g><g class="node default default flowchart-label" id="flowchart-N-117" data-node="true" data-id="N" transform="translate(290.0625, 184)"><rect class="basic label-container" style="" rx="0" ry="0" x="-49.75" y="-16.5" width="99.5" height="33"></rect><g class="label" style="" transform="translate(-42.25, -9)"><rect></rect><foreignObject width="84.5" height="18"><div xmlns="http://www.w3.org/1999/xhtml" style="display: inline-block; white-space: nowrap;"><span class="nodeLabel">Total weight</span></div></foreignObject></g></g><g class="node default default flowchart-label" id="flowchart-K-113" data-node="true" data-id="K" transform="translate(111.65625, 142.5)"><rect class="basic label-container" style="" rx="0" ry="0" x="-72.859375" y="-16.5" width="145.71875" height="33"></rect><g class="label" style="" transform="translate(-65.359375, -9)"><rect></rect><foreignObject width="130.71875" height="18"><div xmlns="http://www.w3.org/1999/xhtml" style="display: inline-block; white-space: nowrap;"><span class="nodeLabel">Plus flexibility x 50</span></div></foreignObject></g></g><g class="node default default flowchart-label" id="flowchart-L-114" data-node="true" data-id="L" transform="translate(111.65625, 225.5)"><rect class="basic label-container" style="" rx="0" ry="0" x="-65.3046875" y="-16.5" width="130.609375" height="33"></rect><g class="label" style="" transform="translate(-57.8046875, -9)"><rect></rect><foreignObject width="115.609375" height="18"><div xmlns="http://www.w3.org/1999/xhtml" style="display: inline-block; white-space: nowrap;"><span class="nodeLabel">Plus loyalty x 30</span></div></foreignObject></g></g><g class="node default default flowchart-label" id="flowchart-M-115" data-node="true" data-id="M" transform="translate(111.65625, 308.5)"><rect class="basic label-container" style="" rx="0" ry="0" x="-78.65625" y="-16.5" width="157.3125" height="33"></rect><g class="label" style="" transform="translate(-71.15625, -9)"><rect></rect><foreignObject width="142.3125" height="18"><div xmlns="http://www.w3.org/1999/xhtml" style="display: inline-block; white-space: nowrap;"><span class="nodeLabel">Minus penalty x 200</span></div></foreignObject></g></g><g class="node default default flowchart-label" id="flowchart-O-125" data-node="true" data-id="O" transform="translate(472.4609375, 184)"><rect class="basic label-container" style="" rx="0" ry="0" x="-82.6484375" y="-16.5" width="165.296875" height="33"></rect><g class="label" style="" transform="translate(-75.1484375, -9)"><rect></rect><foreignObject width="150.296875" height="18"><div xmlns="http://www.w3.org/1999/xhtml" style="display: inline-block; white-space: nowrap;"><span class="nodeLabel">Pick weighted winner</span></div></foreignObject></g></g></g></g><g class="node default default flowchart-label" id="flowchart-A1-81" data-node="true" data-id="A1" transform="translate(705.6328125, 201)"><rect class="basic label-container" style="" rx="0" ry="0" x="-63.5234375" y="-16.5" width="127.046875" height="33"></rect><g class="label" style="" transform="translate(-56.0234375, -9)"><rect></rect><foreignObject width="112.046875" height="18"><div xmlns="http://www.w3.org/1999/xhtml" style="display: inline-block; white-space: nowrap;"><span class="nodeLabel">Booking History</span></div></foreignObject></g></g><g class="node default default flowchart-label" id="flowchart-A2-82" data-node="true" data-id="A2" transform="translate(896.921875, 201)"><rect class="basic label-container" style="" rx="0" ry="0" x="-77.765625" y="-16.5" width="155.53125" height="33"></rect><g class="label" style="" transform="translate(-70.265625, -9)"><rect></rect><foreignObject width="140.53125" height="18"><div xmlns="http://www.w3.org/1999/xhtml" style="display: inline-block; white-space: nowrap;"><span class="nodeLabel">Client Account Data</span></div></foreignObject></g></g><g class="node default default flowchart-label" id="flowchart-B-83" data-node="true" data-id="B" transform="translate(800.25390625, 468.5)"><rect class="basic label-container" style="" rx="0" ry="0" x="-134.6875" y="-16.5" width="269.375" height="33"></rect><g class="label" style="" transform="translate(-127.1875, -9)"><rect></rect><foreignObject width="254.375" height="18"><div xmlns="http://www.w3.org/1999/xhtml" style="display: inline-block; white-space: nowrap;"><span class="nodeLabel">Count behaviours no-shows late etc</span></div></foreignObject></g></g><g class="node default default flowchart-label" id="flowchart-C-84" data-node="true" data-id="C" transform="translate(800.25390625, 551.5)"><rect class="basic label-container" style="" rx="0" ry="0" x="-83.09375" y="-16.5" width="166.1875" height="33"></rect><g class="label" style="" transform="translate(-75.59375, -9)"><rect></rect><foreignObject width="151.1875" height="18"><div xmlns="http://www.w3.org/1999/xhtml" style="display: inline-block; white-space: nowrap;"><span class="nodeLabel">Compute raw penalty</span></div></foreignObject></g></g><g class="node default default flowchart-label" id="flowchart-D-85" data-node="true" data-id="D" transform="translate(800.25390625, 634.5)"><rect class="basic label-container" style="" rx="0" ry="0" x="-91.9921875" y="-16.5" width="183.984375" height="33"></rect><g class="label" style="" transform="translate(-84.4921875, -9)"><rect></rect><foreignObject width="168.984375" height="18"><div xmlns="http://www.w3.org/1999/xhtml" style="display: inline-block; white-space: nowrap;"><span class="nodeLabel">Apply completion decay</span></div></foreignObject></g></g><g class="node default default flowchart-label" id="flowchart-E-86" data-node="true" data-id="E" transform="translate(800.25390625, 717.5)"><rect class="basic label-container" style="" rx="0" ry="0" x="-78.2109375" y="-16.5" width="156.421875" height="33"></rect><g class="label" style="" transform="translate(-70.7109375, -9)"><rect></rect><foreignObject width="141.421875" height="18"><div xmlns="http://www.w3.org/1999/xhtml" style="display: inline-block; white-space: nowrap;"><span class="nodeLabel">Penalty score 0 to 1</span></div></foreignObject></g></g><g class="node default default flowchart-label" id="flowchart-F-87" data-node="true" data-id="F" transform="translate(800.25390625, 869.3515625)"><polygon points="85.3515625,0 170.703125,-85.3515625 85.3515625,-170.703125 0,-85.3515625" class="label-container" transform="translate(-85.3515625,85.3515625)" style=""></polygon><g class="label" style="" transform="translate(-61.3515625, -9)"><rect></rect><foreignObject width="122.703125" height="18"><div xmlns="http://www.w3.org/1999/xhtml" style="display: inline-block; white-space: nowrap;"><span class="nodeLabel">Classify reliability</span></div></foreignObject></g></g><g class="node default default flowchart-label" id="flowchart-G-89" data-node="true" data-id="G" transform="translate(686.05859375, 1039.203125)"><rect class="basic label-container" style="" rx="0" ry="0" x="-33.296875" y="-16.5" width="66.59375" height="33"></rect><g class="label" style="" transform="translate(-25.796875, -9)"><rect></rect><foreignObject width="51.59375" height="18"><div xmlns="http://www.w3.org/1999/xhtml" style="display: inline-block; white-space: nowrap;"><span class="nodeLabel">reliable</span></div></foreignObject></g></g><g class="node default default flowchart-label" id="flowchart-H-91" data-node="true" data-id="H" transform="translate(804.7890625, 1039.203125)"><rect class="basic label-container" style="" rx="0" ry="0" x="-31.0625" y="-16.5" width="62.125" height="33"></rect><g class="label" style="" transform="translate(-23.5625, -9)"><rect></rect><foreignObject width="47.125" height="18"><div xmlns="http://www.w3.org/1999/xhtml" style="display: inline-block; white-space: nowrap;"><span class="nodeLabel">at_risk</span></div></foreignObject></g></g><g class="node default default flowchart-label" id="flowchart-I-93" data-node="true" data-id="I" transform="translate(919.6015625, 1039.203125)"><rect class="basic label-container" style="" rx="0" ry="0" x="-33.75" y="-16.5" width="67.5" height="33"></rect><g class="label" style="" transform="translate(-26.25, -9)"><rect></rect><foreignObject width="52.5" height="18"><div xmlns="http://www.w3.org/1999/xhtml" style="display: inline-block; white-space: nowrap;"><span class="nodeLabel">flagged</span></div></foreignObject></g></g></g></g></g></svg>